<mxfile host="app.diagrams.net" modified="2023-03-30T14:35:41.485Z" agent="5.0 (Macintosh; Intel Mac OS X 10_15_7) AppleWebKit/537.36 (KHTML, like Gecko) Chrome/110.0.0.0 Safari/537.36" etag="flzNFYgIoXpb9Hqk0AvB" version="21.0.6" type="github">
  <diagram name="Page-1" id="A2n7465PFwcgOorXoR8B">
    <mxGraphModel dx="1272" dy="741" grid="1" gridSize="10" guides="1" tooltips="1" connect="1" arrows="1" fold="1" page="1" pageScale="1" pageWidth="850" pageHeight="1100" math="0" shadow="0">
      <root>
        <mxCell id="0" />
        <mxCell id="1" parent="0" />
        <mxCell id="DYThZtQyFXFm4Cya-OjV-68" value="&lt;i style=&quot;font-size: 10px;&quot;&gt;&lt;font color=&quot;#424242&quot;&gt;preliminary findings&lt;br&gt;will guide survey questions&lt;/font&gt;&lt;/i&gt;" style="edgeStyle=orthogonalEdgeStyle;rounded=0;orthogonalLoop=1;jettySize=auto;html=1;exitX=1;exitY=0.5;exitDx=0;exitDy=0;strokeColor=#424242;dashed=1;dashPattern=1 1;" edge="1" parent="1" source="DYThZtQyFXFm4Cya-OjV-90" target="DYThZtQyFXFm4Cya-OjV-28">
          <mxGeometry x="-0.1802" relative="1" as="geometry">
            <Array as="points">
              <mxPoint x="500" y="425" />
              <mxPoint x="500" y="192" />
            </Array>
            <mxPoint y="1" as="offset" />
          </mxGeometry>
        </mxCell>
        <mxCell id="DYThZtQyFXFm4Cya-OjV-111" style="edgeStyle=orthogonalEdgeStyle;rounded=0;orthogonalLoop=1;jettySize=auto;html=1;exitX=0.5;exitY=1;exitDx=0;exitDy=0;entryX=0.497;entryY=-0.033;entryDx=0;entryDy=0;entryPerimeter=0;strokeColor=#424242;" edge="1" parent="1" source="DYThZtQyFXFm4Cya-OjV-5" target="DYThZtQyFXFm4Cya-OjV-85">
          <mxGeometry relative="1" as="geometry" />
        </mxCell>
        <mxCell id="DYThZtQyFXFm4Cya-OjV-5" value="Semi-structured&lt;br&gt;Interviews" style="text;html=1;align=center;verticalAlign=middle;whiteSpace=wrap;rounded=1;fontSize=13;fillColor=#A7A7A7;fontColor=#424242;strokeColor=none;" vertex="1" parent="1">
          <mxGeometry x="240" y="178.62" width="139" height="43.38" as="geometry" />
        </mxCell>
        <mxCell id="DYThZtQyFXFm4Cya-OjV-54" style="edgeStyle=orthogonalEdgeStyle;rounded=0;orthogonalLoop=1;jettySize=auto;html=1;fontColor=#424242;strokeColor=#424242;entryX=0.5;entryY=0;entryDx=0;entryDy=0;startArrow=none;" edge="1" parent="1">
          <mxGeometry relative="1" as="geometry">
            <mxPoint x="457.027027027027" y="89" as="sourcePoint" />
            <mxPoint x="310" y="174.62" as="targetPoint" />
            <Array as="points">
              <mxPoint x="457" y="120" />
              <mxPoint x="310" y="120" />
            </Array>
          </mxGeometry>
        </mxCell>
        <mxCell id="DYThZtQyFXFm4Cya-OjV-55" value="&lt;font color=&quot;#424242&quot;&gt;&amp;nbsp;n=36&amp;nbsp;&lt;br&gt;&lt;/font&gt;" style="edgeLabel;html=1;align=center;verticalAlign=middle;resizable=0;points=[];fontSize=10;" vertex="1" connectable="0" parent="DYThZtQyFXFm4Cya-OjV-54">
          <mxGeometry x="0.7776" y="-1" relative="1" as="geometry">
            <mxPoint x="76" y="-29" as="offset" />
          </mxGeometry>
        </mxCell>
        <mxCell id="DYThZtQyFXFm4Cya-OjV-7" value="Rural communities adapting &amp;amp; responding to climate extremes" style="text;html=1;align=center;verticalAlign=middle;whiteSpace=wrap;rounded=1;fontSize=14;fillColor=#76608a;strokeColor=#432D57;fontColor=#ffffff;" vertex="1" parent="1">
          <mxGeometry x="200" y="20" width="520" height="41" as="geometry" />
        </mxCell>
        <mxCell id="DYThZtQyFXFm4Cya-OjV-12" value="&lt;font style=&quot;font-size: 11px;&quot;&gt;Invite participants to be part of a Narrative Photography project to tell their stories&lt;/font&gt;" style="text;html=1;align=center;verticalAlign=middle;whiteSpace=wrap;rounded=0;fontColor=#666666;fontStyle=2;fontSize=11;dashed=1;dashPattern=1 1;" vertex="1" parent="1">
          <mxGeometry x="372" y="470" width="170" height="60" as="geometry" />
        </mxCell>
        <mxCell id="DYThZtQyFXFm4Cya-OjV-110" style="edgeStyle=orthogonalEdgeStyle;rounded=0;orthogonalLoop=1;jettySize=auto;html=1;exitX=0.5;exitY=1;exitDx=0;exitDy=0;entryX=0.5;entryY=0;entryDx=0;entryDy=0;strokeColor=#424242;" edge="1" parent="1" source="DYThZtQyFXFm4Cya-OjV-28" target="DYThZtQyFXFm4Cya-OjV-109">
          <mxGeometry relative="1" as="geometry" />
        </mxCell>
        <mxCell id="DYThZtQyFXFm4Cya-OjV-28" value="Survey" style="text;html=1;align=center;verticalAlign=middle;whiteSpace=wrap;rounded=1;fontSize=13;fillColor=#A7A7A7;fontColor=#424242;strokeColor=none;" vertex="1" parent="1">
          <mxGeometry x="556" y="179.62" width="139" height="43.38" as="geometry" />
        </mxCell>
        <mxCell id="DYThZtQyFXFm4Cya-OjV-108" value="&lt;font style=&quot;font-size: 10px;&quot; color=&quot;#424242&quot;&gt;&amp;nbsp;n=90&amp;nbsp;&lt;/font&gt;" style="edgeStyle=orthogonalEdgeStyle;rounded=0;orthogonalLoop=1;jettySize=auto;html=1;exitX=0.5;exitY=1;exitDx=0;exitDy=0;entryX=0.5;entryY=0;entryDx=0;entryDy=0;" edge="1" parent="1" source="DYThZtQyFXFm4Cya-OjV-6" target="DYThZtQyFXFm4Cya-OjV-28">
          <mxGeometry x="-0.1258" relative="1" as="geometry">
            <Array as="points">
              <mxPoint x="457" y="120" />
              <mxPoint x="626" y="120" />
            </Array>
            <mxPoint as="offset" />
          </mxGeometry>
        </mxCell>
        <mxCell id="DYThZtQyFXFm4Cya-OjV-6" value="&lt;i&gt;Ensure female and minority representation&lt;br&gt;&lt;/i&gt;" style="text;html=1;align=center;verticalAlign=middle;whiteSpace=wrap;rounded=0;fontSize=10;fontColor=#424242;" vertex="1" parent="1">
          <mxGeometry x="357" y="61" width="200" height="30" as="geometry" />
        </mxCell>
        <mxCell id="DYThZtQyFXFm4Cya-OjV-97" value="" style="group;fontColor=#424242;" vertex="1" connectable="0" parent="1">
          <mxGeometry x="510" y="990" width="196" height="60" as="geometry" />
        </mxCell>
        <mxCell id="DYThZtQyFXFm4Cya-OjV-98" value="" style="rounded=0;whiteSpace=wrap;html=1;fontSize=13;fillColor=#e1d5e7;strokeColor=#9673a6;fontColor=#424242;" vertex="1" parent="DYThZtQyFXFm4Cya-OjV-97">
          <mxGeometry y="5" width="40" height="20" as="geometry" />
        </mxCell>
        <mxCell id="DYThZtQyFXFm4Cya-OjV-99" value="Researcher &amp;amp; participants" style="text;html=1;strokeColor=none;fillColor=none;align=left;verticalAlign=middle;whiteSpace=wrap;rounded=0;fontSize=11;fontColor=#424242;" vertex="1" parent="DYThZtQyFXFm4Cya-OjV-97">
          <mxGeometry x="40" width="155" height="30" as="geometry" />
        </mxCell>
        <mxCell id="DYThZtQyFXFm4Cya-OjV-100" value="" style="rounded=0;whiteSpace=wrap;html=1;fontSize=13;fillColor=#fff2cc;strokeColor=#d6b656;fontColor=#424242;" vertex="1" parent="DYThZtQyFXFm4Cya-OjV-97">
          <mxGeometry y="35" width="40" height="20" as="geometry" />
        </mxCell>
        <mxCell id="DYThZtQyFXFm4Cya-OjV-101" value="Researcher&amp;nbsp;" style="text;html=1;strokeColor=none;fillColor=none;align=left;verticalAlign=middle;whiteSpace=wrap;rounded=0;fontSize=11;fontColor=#424242;" vertex="1" parent="DYThZtQyFXFm4Cya-OjV-97">
          <mxGeometry x="40" y="30" width="156" height="30" as="geometry" />
        </mxCell>
        <mxCell id="DYThZtQyFXFm4Cya-OjV-89" value="" style="endArrow=none;dashed=1;html=1;rounded=0;fontSize=10;fontColor=#424242;elbow=vertical;entryX=0.5;entryY=1;entryDx=0;entryDy=0;" edge="1" parent="1" source="DYThZtQyFXFm4Cya-OjV-90" target="DYThZtQyFXFm4Cya-OjV-85">
          <mxGeometry width="50" height="50" relative="1" as="geometry">
            <mxPoint x="310" y="449.9999999999999" as="sourcePoint" />
            <mxPoint x="304.5000000000001" y="358" as="targetPoint" />
          </mxGeometry>
        </mxCell>
        <mxCell id="DYThZtQyFXFm4Cya-OjV-90" value="Determine themes" style="text;html=1;align=center;verticalAlign=middle;whiteSpace=wrap;rounded=0;fillColor=#fff2cc;strokeColor=#d6b656;fontColor=#424242;" vertex="1" parent="1">
          <mxGeometry x="227.5" y="417" width="165" height="30" as="geometry" />
        </mxCell>
        <mxCell id="DYThZtQyFXFm4Cya-OjV-91" value="Conduct text mining&amp;nbsp;" style="text;html=1;align=center;verticalAlign=middle;whiteSpace=wrap;rounded=0;fillColor=#fff2cc;strokeColor=#d6b656;fontColor=#424242;" vertex="1" parent="1">
          <mxGeometry x="227.5" y="377" width="165" height="30" as="geometry" />
        </mxCell>
        <mxCell id="DYThZtQyFXFm4Cya-OjV-92" value="Interview coding" style="text;html=1;align=center;verticalAlign=middle;whiteSpace=wrap;rounded=0;fillColor=#fff2cc;strokeColor=#d6b656;fontColor=#424242;" vertex="1" parent="1">
          <mxGeometry x="227.5" y="337" width="162.5" height="30" as="geometry" />
        </mxCell>
        <mxCell id="DYThZtQyFXFm4Cya-OjV-112" style="edgeStyle=orthogonalEdgeStyle;rounded=0;orthogonalLoop=1;jettySize=auto;html=1;exitX=0;exitY=0.5;exitDx=0;exitDy=0;entryX=0;entryY=0.5;entryDx=0;entryDy=0;strokeColor=#424242;dashed=1;dashPattern=1 4;" edge="1" parent="1" source="DYThZtQyFXFm4Cya-OjV-85" target="DYThZtQyFXFm4Cya-OjV-12">
          <mxGeometry relative="1" as="geometry" />
        </mxCell>
        <mxCell id="DYThZtQyFXFm4Cya-OjV-85" value="Conversation with 6 farmers and 6 community member per region.&lt;br&gt;&lt;b&gt;Topics:&lt;/b&gt; perceptions towards weather extremes &amp;amp; impacts on their livelihoods and health" style="text;html=1;align=center;verticalAlign=middle;whiteSpace=wrap;rounded=0;fillColor=#e1d5e7;strokeColor=#9673a6;fontColor=#424242;" vertex="1" parent="1">
          <mxGeometry x="207.5" y="250" width="205" height="80" as="geometry" />
        </mxCell>
        <mxCell id="DYThZtQyFXFm4Cya-OjV-113" style="edgeStyle=orthogonalEdgeStyle;rounded=0;orthogonalLoop=1;jettySize=auto;html=1;exitX=0.5;exitY=1;exitDx=0;exitDy=0;entryX=1;entryY=0.5;entryDx=0;entryDy=0;strokeColor=#424242;dashed=1;dashPattern=1 4;" edge="1" parent="1" source="DYThZtQyFXFm4Cya-OjV-109" target="DYThZtQyFXFm4Cya-OjV-12">
          <mxGeometry relative="1" as="geometry" />
        </mxCell>
        <mxCell id="DYThZtQyFXFm4Cya-OjV-109" value="30 per region - online or paper&lt;br&gt;&lt;b&gt;Topics: &lt;/b&gt;health impacts, weather extremes and their impacts on the community, business, or personal life" style="text;html=1;align=center;verticalAlign=middle;whiteSpace=wrap;rounded=0;fillColor=#e1d5e7;strokeColor=#9673a6;fontColor=#424242;" vertex="1" parent="1">
          <mxGeometry x="523" y="250" width="205" height="80" as="geometry" />
        </mxCell>
      </root>
    </mxGraphModel>
  </diagram>
</mxfile>
